<?xml version="1.0" encoding="iso-8859-1"?>
<!-- Generator: Adobe Illustrator 19.0.0, SVG Export Plug-In . SVG Version: 6.00 Build 0)  -->
<svg version="1.1" id="Capa_1" xmlns="http://www.w3.org/2000/svg" xmlns:xlink="http://www.w3.org/1999/xlink" x="0px" y="0px"
	 viewBox="0 0 480.046 480.046" style="enable-background:new 0 0 480.046 480.046;" xml:space="preserve">
<g>
	<g>
		<path d="M472.608,276.569c-14.042-31.981-45.688-52.613-80.617-52.559c-6.737,0.029-13.448,0.834-20,2.4l-55.864-130.4h91.864
			c13.255,0,24,10.745,24,24s-10.745,24-24,24h-24v16h24c22.091,0,40-17.909,40-40s-17.909-40-40-40h-104
			c-4.418,0-8,3.583-7.999,8.001c0,1.083,0.22,2.155,0.647,3.151l22.648,52.848H170.815l-22.288-48h27.464v-16h-72v16h26.896
			l26.904,57.952l-41.2,74.912c-45.938-15.799-95.986,8.633-111.785,54.571c-15.799,45.938,8.633,95.986,54.571,111.785
			c45.938,15.799,95.986-8.633,111.785-54.571c2.298-6.681,3.782-13.614,4.421-20.649h64.408c0.695-0.004,1.386-0.098,2.056-0.28
			c0.232-0.064,0.432-0.176,0.656-0.256c1.365-0.412,2.56-1.254,3.408-2.4c0.214-0.228,0.415-0.468,0.6-0.72
			c0.056-0.088,0.08-0.192,0.136-0.288c0.056-0.096,0.112-0.128,0.152-0.2l82.024-149.144l27.768,64.704
			c-44.448,19.516-64.659,71.369-45.143,115.817c19.516,44.448,71.369,64.659,115.817,45.143
			C471.913,372.87,492.124,321.017,472.608,276.569z M87.991,384.01c-39.764,0.033-72.027-32.176-72.06-71.94
			c-0.033-39.764,32.176-72.027,71.94-72.06c7.087-0.006,14.136,1.035,20.92,3.088l-35.784,65.064
			c-2.125,3.874-0.708,8.737,3.166,10.862c1.171,0.642,2.483,0.981,3.818,0.986h79.528
			C155.411,356.424,124.636,383.96,87.991,384.01z M93.519,304.01l30-54.544c20.027,11.383,33.406,31.654,36,54.544H93.519z
			 M175.583,304.01c-2.664-28.749-19.251-54.365-44.392-68.56l34.96-63.488l61.304,132.048H175.583z M240.703,294.106
			L180.367,160.01h134.096L240.703,294.106z M405.919,382.682c-4.588,0.894-9.253,1.338-13.928,1.328
			c-39.764-0.062-71.95-32.348-71.887-72.112c0.044-28.49,16.883-54.273,42.951-65.768l29.6,69.032l14.704-6.296l-28.968-67.528
			c39.031-7.602,76.834,17.877,84.436,56.908C470.429,337.278,444.95,375.081,405.919,382.682z"/>
	</g>
</g>
<g>
</g>
<g>
</g>
<g>
</g>
<g>
</g>
<g>
</g>
<g>
</g>
<g>
</g>
<g>
</g>
<g>
</g>
<g>
</g>
<g>
</g>
<g>
</g>
<g>
</g>
<g>
</g>
<g>
</g>
</svg>
