<?xml version="1.0" encoding="iso-8859-1"?>
<!-- Generator: Adobe Illustrator 19.0.0, SVG Export Plug-In . SVG Version: 6.00 Build 0)  -->
<svg version="1.1" id="Capa_1" xmlns="http://www.w3.org/2000/svg" xmlns:xlink="http://www.w3.org/1999/xlink" x="0px" y="0px"
	 viewBox="0 0 480 480" style="enable-background:new 0 0 480 480;" xml:space="preserve">
<g>
	<g>
		<path d="M464,289.472V224C464,100.288,363.712,0,240,0S16,100.288,16,224v65.472C6.445,292.85,0.042,301.866,0,312v144
			c0,13.255,10.745,24,24,24h32c13.255,0,24-10.745,24-24h8c13.255,0,24-10.745,24-24v-96c0-13.255-10.745-24-24-24h-8
			c-0.042-10.134-6.445-19.15-16-22.528V224c0-97.202,78.798-176,176-176s176,78.798,176,176v65.472
			c-9.555,3.378-15.958,12.394-16,22.528h-8c-13.255,0-24,10.745-24,24v96c0,13.255,10.745,24,24,24h8c0,13.255,10.745,24,24,24h32
			c13.255,0,24-10.745,24-24V312C479.958,301.866,473.555,292.85,464,289.472z M80,328h8c4.418,0,8,3.582,8,8v96
			c0,4.418-3.582,8-8,8h-8V328z M400,440h-8c-4.418,0-8-3.582-8-8v-96c0-4.418,3.582-8,8-8h8V440z M64,456c0,4.418-3.582,8-8,8H24
			c-4.418,0-8-3.582-8-8V312c0-4.418,3.582-8,8-8h32c4.418,0,8,3.582,8,8V456z M240,32C134.013,32.123,48.123,118.013,48,224v64H32
			v-64c0-114.875,93.125-208,208-208s208,93.125,208,208v64h-16v-64C431.877,118.013,345.987,32.123,240,32z M464,456
			c0,4.418-3.582,8-8,8h-32c-4.418,0-8-3.582-8-8V312c0-4.418,3.582-8,8-8h32c4.418,0,8,3.582,8,8V456z"/>
	</g>
</g>
<g>
	<g>
		<path d="M165.664,330.344c-3.124-3.126-8.19-3.128-11.316-0.004c-3.126,3.124-3.128,8.19-0.004,11.316
			c23.353,23.4,23.353,61.288,0,84.688c-3.123,3.124-3.123,8.188,0,11.312c3.122,3.126,8.188,3.129,11.314,0.006
			c0.002-0.002,0.004-0.004,0.006-0.006C195.232,407.995,195.232,360.004,165.664,330.344z"/>
	</g>
</g>
<g>
	<g>
		<path d="M325.656,341.656c3.124-3.126,3.122-8.192-0.004-11.316c-3.126-3.124-8.192-3.122-11.316,0.004
			c-29.568,29.66-29.568,77.651,0,107.312c3.124,3.126,8.19,3.128,11.316,0.004c3.126-3.124,3.128-8.19,0.004-11.316
			C302.303,402.944,302.303,365.056,325.656,341.656z"/>
	</g>
</g>
<g>
	<g>
		<path d="M141.656,354.344c-3.178-3.07-8.242-2.982-11.312,0.196c-2.994,3.1-2.994,8.015,0,11.116
			c10.113,10.139,10.113,26.549,0,36.688c-3.123,3.124-3.123,8.188,0,11.312c3.124,3.123,8.188,3.123,11.312,0
			C158.006,397.266,158.006,370.734,141.656,354.344z"/>
	</g>
</g>
<g>
	<g>
		<path d="M349.656,365.656c3.123-3.124,3.123-8.188,0-11.312c-3.124-3.123-8.188-3.123-11.312,0
			c-16.35,16.39-16.35,42.922,0,59.312c3.178,3.07,8.242,2.982,11.312-0.196c2.995-3.1,2.995-8.016,0-11.116
			C339.543,392.205,339.543,375.795,349.656,365.656z"/>
	</g>
</g>
<g>
</g>
<g>
</g>
<g>
</g>
<g>
</g>
<g>
</g>
<g>
</g>
<g>
</g>
<g>
</g>
<g>
</g>
<g>
</g>
<g>
</g>
<g>
</g>
<g>
</g>
<g>
</g>
<g>
</g>
</svg>
